<?xml version="1.0" encoding="UTF-8"?>
<svg width="140px" height="140px" viewBox="0 0 140 140" version="1.1" xmlns="http://www.w3.org/2000/svg" xmlns:xlink="http://www.w3.org/1999/xlink">
    <title>Group</title>
    <g id="www.pkbroz.com" stroke="none" stroke-width="1" fill="none" fill-rule="evenodd">
        <g id="Artboard" transform="translate(-442.000000, -4.000000)">
            <g id="Group" transform="translate(442.000000, 4.000000)">
                <circle id="Oval" stroke="#FFFFFF" stroke-width="5" cx="70" cy="70" r="67.5"></circle>
                <g id="people-svgrepo-com" transform="translate(23.000000, 41.000000)" fill="#FFFFFF" fill-rule="nonzero">
                    <path d="M0,49.0947355 C2.16117424,51.8310464 4.55569325,54.3746074 7.15660752,56.6967915 C7.14860684,56.4687298 7.11660413,56.2526714 7.11660413,56.0246097 C7.14862617,47.7126875 12.2872674,40.2759335 20.049702,37.3075476 C21.4724907,36.769138 22.4668329,35.4701939 22.6153428,33.9559612 C22.7638526,32.4417284 22.0408261,30.9742892 20.7497614,30.1696171 C17.2327184,27.9963287 15.0991447,24.149727 15.1172833,20.0148706 C15.0994507,15.250952 17.9111586,10.9311177 22.2739605,9.01953952 C26.6367624,7.1079613 31.7178771,7.9695254 35.2069887,11.21249 C37.7077486,9.77681793 40.448477,8.80748827 43.2956754,8.35171625 C39.0462836,2.41389061 31.8968465,-0.732592983 24.6489724,0.145259711 C17.4010983,1.0231124 11.2092149,5.78547868 8.49969952,12.5661577 C5.79018414,19.3468368 6.99460328,27.0658149 11.6409882,32.698301 C5.88371629,36.5531955 1.74142523,42.3876489 0,49.0947355 L0,49.0947355 Z M94.24,49.0947355 C92.5003431,42.3847047 88.3578701,36.5471474 82.5990118,32.6902988 C87.2299995,27.0564353 88.4240218,19.3464359 85.7141562,12.5752964 C83.0042906,5.80415702 76.8210827,1.04768185 69.5824766,0.16589097 C62.3438705,-0.715899904 55.1999419,2.41709318 50.9443246,8.339713 C53.791567,8.79531219 56.5323258,9.7646526 59.0330113,11.2004867 C62.3757397,8.12557646 67.170113,7.20696485 71.4123705,8.82857648 C75.654628,10.4501881 78.6143917,14.3328345 79.0546577,18.8538021 C79.4949238,23.3747698 77.3398928,27.7556959 73.4902386,30.165616 C72.1991739,30.9702882 71.4761474,32.4377273 71.6246572,33.9519601 C71.7731671,35.4661928 72.7675093,36.7651369 74.190298,37.3035465 C81.9540917,40.2724593 87.0930234,47.7112234 87.1233959,56.0246097 C87.1233959,56.2526714 87.0913932,56.4687298 87.0833925,56.6927904 C89.684118,54.3718624 92.0786308,51.8296468 94.24,49.0947355 Z" id="Shape"></path>
                    <path d="M74.9383615,65.1630813 C74.0585001,56.850776 69.5385514,49.356673 62.5973139,44.7015473 C65.5385416,41.1310587 67.1390195,36.6443597 67.1216979,32.018117 C67.1166769,23.2107354 61.3533481,15.4426881 52.9268619,12.8857438 C44.5003757,10.3287994 35.3932194,13.5845266 30.4963195,20.9044626 C25.5994196,28.2243987 26.0648626,37.8863929 31.6426861,44.7015473 C24.7014486,49.356673 20.1814999,56.850776 19.3016385,65.1630813 C21.8410653,66.482655 24.4720722,67.6178884 27.1743068,68.56 C27.1663061,68.3799513 27.1183021,68.2119059 27.1183021,68.0278561 C27.1525854,59.7166443 32.2904293,52.2810444 40.0513999,49.3107939 C41.4762789,48.773334 42.4724766,47.4733328 42.621062,45.9574795 C42.7696475,44.4416263 42.0448465,42.9728684 40.7514594,42.1688623 C37.2332977,39.99855 35.0991083,36.1523542 35.1189812,32.018117 C35.1189811,27.72977 37.4063624,23.767174 41.1194905,21.6230005 C44.8326187,19.478827 49.4073813,19.478827 53.1205095,21.6230005 C56.8336376,23.767174 59.1210189,27.72977 59.1210188,32.018117 C59.1408917,36.1523542 57.0067023,39.99855 53.4885406,42.1688623 C52.1951535,42.9728684 51.4703525,44.4416263 51.618938,45.9574795 C51.7675234,47.4733328 52.7637211,48.773334 54.1886001,49.3107939 C61.9495707,52.2810444 67.0874146,59.7166443 67.1216979,68.0278561 C67.1216979,68.2119059 67.0736939,68.3799513 67.0696935,68.56 C69.7705844,67.6177617 72.4002523,66.4825292 74.9383615,65.1630813 Z" id="Path"></path>
                </g>
            </g>
        </g>
    </g>
</svg>