<?xml version="1.0" encoding="UTF-8"?>
<svg width="141px" height="141px" viewBox="0 0 141 141" version="1.1" xmlns="http://www.w3.org/2000/svg" xmlns:xlink="http://www.w3.org/1999/xlink">
    <title>web-development-svgrepo-com</title>
    <g id="www.pkbroz.com" stroke="none" stroke-width="1" fill="none" fill-rule="evenodd">
        <g id="Artboard" transform="translate(-290.000000, -4.000000)">
            <g id="web-development-svgrepo-com" transform="translate(290.609807, 4.396529)">
                <circle id="Oval" stroke="#FFFFFF" stroke-width="5" cx="70" cy="70" r="67.5"></circle>
                <path d="M57.6452728,81.8620246 C57.6452728,80.0369046 56.5756265,78.3604213 54.9198832,77.591505 L39.7662407,70.5506591 L54.9202673,63.5090451 C56.5756265,62.7393606 57.6452728,61.0632614 57.6452728,59.2389095 L57.6452728,59.1163899 C57.6452728,57.4994381 56.8314198,56.0149918 55.4694932,55.1473684 C54.7159398,54.6661236 53.8383306,54.4114825 52.9322999,54.4114825 C52.2494162,54.4114825 51.5638439,54.5616555 50.9504776,54.8466384 L26.7238533,66.1126832 C25.0688781,66.8823676 24,68.5584669 24,70.3824347 L24,70.7192676 C24,72.540931 25.0684941,74.215878 26.7242374,74.9894032 L50.9531662,86.2566001 C51.579591,86.5465761 52.2467276,86.6936764 52.9357565,86.6936764 C53.8337217,86.6936764 54.7086424,86.4386513 55.4694932,85.9547179 C56.832188,85.0836379 57.6456569,83.6003439 57.6456569,81.9853124 L57.6452728,81.8620246 L57.6452728,81.8620246 Z" id="Path" fill="#FFFFFF" fill-rule="nonzero"></path>
                <path d="M81.5488908,42.9318926 C80.6651364,41.7220593 79.2436782,41 77.7461734,41 L77.6255742,41 C75.5692416,41 73.7663979,42.3154537 73.1399731,44.2707748 L57.1778546,93.7287612 C56.723495,95.1567486 56.9792884,96.7295319 57.8618906,97.9389812 C58.745645,99.1480464 60.1671032,99.8704897 61.664608,99.8704897 L61.7855913,99.8704897 C63.8411557,99.8704897 65.6428472,98.5546519 66.2685039,96.5997149 L82.2287019,47.1455692 C82.6872864,45.7187341 82.4330293,44.1436463 81.5488908,42.9318926 Z" id="Path" fill="#FFFFFF" fill-rule="nonzero"></path>
                <path d="M112.685392,66.1122991 L88.4583834,54.8462544 C87.8469375,54.5620396 87.1625175,54.4118666 86.4796338,54.4118666 C85.5739871,54.4118666 84.6959938,54.6657396 83.9428245,55.1462162 C82.5785934,56.0153759 81.7647405,57.4994381 81.7647405,59.1163899 L81.7647405,59.2389095 C81.7647405,61.0617251 82.8336186,62.7382084 84.4905141,63.5109654 L99.6437726,70.5510432 L84.4901301,77.591505 C82.8343867,78.3604213 81.7647405,80.0369046 81.7647405,81.8620246 L81.7647405,81.9853124 C81.7647405,83.6003439 82.5785934,85.0832539 83.9420564,85.955102 C84.7002186,86.4382672 85.5759075,86.6936764 86.4750249,86.6936764 C87.1632856,86.6936764 87.8296541,86.5465761 88.4603038,86.2554479 L112.688464,74.9882509 C114.342671,74.2166461 115.410781,72.541315 115.410781,70.7196517 L115.410781,70.3828187 C115.409629,68.5584669 114.340751,66.8823676 112.685392,66.1122991 Z" id="Path" fill="#FFFFFF" fill-rule="nonzero"></path>
            </g>
        </g>
    </g>
</svg>